<?xml version="1.0" encoding="UTF-8" standalone="no"?>
<svg
   xmlns:dc="http://purl.org/dc/elements/1.1/"
   xmlns:cc="http://creativecommons.org/ns#"
   xmlns:rdf="http://www.w3.org/1999/02/22-rdf-syntax-ns#"
   xmlns:svg="http://www.w3.org/2000/svg"
   xmlns="http://www.w3.org/2000/svg"
   xmlns:sodipodi="http://sodipodi.sourceforge.net/DTD/sodipodi-0.dtd"
   xmlns:inkscape="http://www.inkscape.org/namespaces/inkscape"
   version="1.1"
   id="Layer_1"
   x="0px"
   y="0px"
   viewBox="0 0 122.88 122.88"
   style="enable-background:new 0 0 122.88 122.88"
   xml:space="preserve"
   sodipodi:docname="snip.svg"
   inkscape:version="1.0.1 (3bc2e813f5, 2020-09-07)"><metadata
     id="metadata13"><rdf:RDF><cc:Work
         rdf:about=""><dc:format>image/svg+xml</dc:format><dc:type
           rdf:resource="http://purl.org/dc/dcmitype/StillImage" /><dc:title></dc:title></cc:Work></rdf:RDF></metadata><defs
     id="defs11"><filter
       style="color-interpolation-filters:sRGB;"
       inkscape:label="Drop Shadow"
       id="filter1676"><feFlood
         flood-opacity="0.498039"
         flood-color="rgb(92,153,246)"
         result="flood"
         id="feFlood1666" /><feComposite
         in="flood"
         in2="SourceGraphic"
         operator="in"
         result="composite1"
         id="feComposite1668" /><feGaussianBlur
         in="composite1"
         stdDeviation="2.77556e-17"
         result="blur"
         id="feGaussianBlur1670" /><feOffset
         dx="1"
         dy="1"
         result="offset"
         id="feOffset1672" /><feComposite
         in="SourceGraphic"
         in2="offset"
         operator="over"
         result="composite2"
         id="feComposite1674" /></filter></defs><sodipodi:namedview
     pagecolor="#ffffff"
     bordercolor="#666666"
     borderopacity="1"
     objecttolerance="10"
     gridtolerance="10"
     guidetolerance="10"
     inkscape:pageopacity="0"
     inkscape:pageshadow="2"
     inkscape:window-width="1892"
     inkscape:window-height="1052"
     id="namedview9"
     showgrid="false"
     inkscape:snap-object-midpoints="true"
     inkscape:snap-center="true"
     inkscape:zoom="4.8279834"
     inkscape:cx="11.579107"
     inkscape:cy="35.3816"
     inkscape:window-x="28"
     inkscape:window-y="0"
     inkscape:window-maximized="1"
     inkscape:current-layer="layer1" /><style
     type="text/css"
     id="style2">.st0{fill-rule:evenodd;clip-rule:evenodd;}</style><g
     inkscape:groupmode="layer"
     id="layer2"
     inkscape:label="Layer 2"><ellipse
       style="fill:#abccff;fill-opacity:1;stroke-width:1.05806"
       id="path844"
       cx="61.351963"
       cy="61.581459"
       rx="60.941147"
       ry="60.66304" /></g><g
     inkscape:groupmode="layer"
     id="layer1"
     inkscape:label="Layer 1"
     style="display:inline"><path
       class="st0"
       d="m 74.09,14.2 6.58,6.58 c 8.27,8.27 7.699178,22.304751 -0.628516,30.516652 L 62.321965,68.769785 C 55.801965,75.299785 48.11,75.79 40.2,72.02 L 69.86,41.55 c 3.008641,-3.090806 3.05,-8.03 0,-11.07 l -5.97,-5.97 c -3.05,-3.05 -8.02,-3.05 -11.07,0 L 22.15,55.17 c -3.37,-7.78 -1.9,-17.2 4.43,-23.53 L 44.02,14.2 c 8.27,-8.27 21.8,-8.27 30.07,0 z m -33.89,87.89 6.58,6.58 c 8.27,8.27 21.8,8.27 30.08,0 L 94.29,91.24 C 100.82,84.72 102.18,74.91 98.41,67 L 67.55,97.86 c -3.05,3.05 -8.03,3.05 -11.07,0 l -5.97,-5.97 c -3.05,-3.05 -3.05,-8.03 0,-11.08 L 81.18,50.15 C 73.39,46.78 63.950912,48.00765 57.610912,54.34765 L 40.2,72.02 c -8.27,8.27 -8.27,21.8 0,30.07 z"
       id="path4"
       sodipodi:nodetypes="sssccscsccssssscccscsccccs"
       style="opacity:1;mix-blend-mode:hard-light;fill:#ffac76;fill-opacity:1;stroke:#000000;stroke-width:0.2;stroke-linecap:butt;stroke-linejoin:round;stroke-miterlimit:4;stroke-dasharray:none;stroke-opacity:0;paint-order:normal;filter:url(#filter1676)" /></g></svg>
